<svg width="280" height="44" viewBox="0 0 280 44" fill="none" xmlns="http://www.w3.org/2000/svg">
<rect width="280" height="44" fill="url(#paint0_linear_12094_1026546)"/>
<g clip-path="url(#clip0_12094_1026546)">
<path d="M16 24.0226C16 23.4013 16.5037 22.8976 17.125 22.8976H22.975C23.5963 22.8976 24.1 23.4013 24.1 24.0226V29.8726C24.1 30.4939 23.5963 30.9976 22.975 30.9976H17.125C16.5037 30.9976 16 30.4939 16 29.8726V24.0226Z" fill="#641DD7"/>
<path d="M25.9 17.0476C25.9 14.8108 27.7133 12.9976 29.95 12.9976C32.1868 12.9976 34 14.8108 34 17.0476C34 19.2843 32.1868 21.0976 29.95 21.0976C27.7133 21.0976 25.9 19.2843 25.9 17.0476Z" fill="#641DD7"/>
<path d="M16 14.1226C16 13.5012 16.5037 12.9976 17.125 12.9976H22.975C23.5963 12.9976 24.1 13.5012 24.1 14.1226V19.9726C24.1 20.5939 23.5963 21.0976 22.975 21.0976H17.125C16.5037 21.0976 16 20.5939 16 19.9726V14.1226Z" fill="#641DD7"/>
<path d="M25.9 24.0976C25.9 23.7662 26.1686 23.4976 26.5 23.4976H33.4C33.7314 23.4976 34 23.7662 34 24.0976C34 24.429 33.7314 24.6976 33.4 24.6976H26.5C26.1686 24.6976 25.9 24.429 25.9 24.0976Z" fill="#641DD7"/>
<path d="M25.9 26.9536C25.9 26.6222 26.1686 26.3536 26.5 26.3536H33.4C33.7314 26.3536 34 26.6222 34 26.9536C34 27.285 33.7314 27.5536 33.4 27.5536H26.5C26.1686 27.5536 25.9 27.285 25.9 26.9536Z" fill="#641DD7"/>
<path d="M25.9 29.8096C25.9 29.4782 26.1686 29.2096 26.5 29.2096H33.4C33.7314 29.2096 34 29.4782 34 29.8096C34 30.141 33.7314 30.4096 33.4 30.4096H26.5C26.1686 30.4096 25.9 30.141 25.9 29.8096Z" fill="#641DD7"/>
</g>
<path d="M37.5994 26.5336C37.6303 26.2551 37.7231 25.9663 37.8779 25.6826C38.0326 25.3938 38.2131 25.1669 38.4143 24.9967C39.4509 25.662 40.4618 25.9921 41.4573 25.9921C41.9421 25.9921 42.3237 25.8786 42.6022 25.6517C42.8808 25.4247 43.0252 25.1411 43.0252 24.8007C43.0045 24.2179 42.6177 23.7588 41.8647 23.4287L40.0853 22.6757C39.3839 22.3869 38.8527 22.0104 38.5019 21.5514C38.1512 21.0924 37.9759 20.5714 37.9759 19.9783C37.9759 19.5244 38.0635 19.1118 38.2389 18.7405C38.4143 18.3691 38.667 18.0494 38.9919 17.7812C39.3168 17.513 39.7037 17.3067 40.1524 17.1571C40.6011 17.0075 41.0962 16.9302 41.6378 16.9302C42.7415 16.9302 43.8298 17.2087 44.8922 17.7605C44.8613 18.3743 44.624 18.8849 44.1856 19.2975C43.1696 18.823 42.2876 18.5909 41.5346 18.5909C41.0498 18.5909 40.6836 18.6992 40.4257 18.921C40.1679 19.1428 40.0389 19.411 40.0389 19.7307C40.0389 20.1898 40.3948 20.5714 41.1065 20.8706L42.8859 21.6236C43.608 21.9227 44.165 22.3199 44.557 22.815C44.949 23.3101 45.1449 23.8775 45.1449 24.517C45.1449 24.9709 45.0624 25.3886 44.9025 25.7754C44.7426 26.1623 44.5002 26.4924 44.1702 26.7709C43.8452 27.0494 43.4378 27.266 42.9478 27.4207C42.4578 27.5754 41.8853 27.6528 41.22 27.6528C39.9409 27.6477 38.734 27.2763 37.5994 26.5336Z" fill="white"/>
<path d="M50.2868 22.81C50.2868 21.9951 50.0237 21.5876 49.5028 21.5876C49.0696 21.6083 48.6312 21.8455 48.1928 22.2942V27.4363C47.8937 27.4879 47.5636 27.5137 47.2129 27.5137C46.8621 27.5137 46.5372 27.4879 46.2329 27.4363V19.9733L46.3257 19.8701H47.0633C47.6564 19.8701 48.0174 20.1796 48.1464 20.8037C48.8478 20.1487 49.5492 19.8237 50.2404 19.8237C51.0656 19.8237 51.6484 20.1848 51.9888 20.9068C52.7624 20.1848 53.5464 19.8237 54.3407 19.8237C54.9854 19.8237 55.4753 20.0403 55.8106 20.4787C56.1458 20.9171 56.316 21.4845 56.316 22.1911V25.6879C56.316 26.3326 56.4192 26.8071 56.6306 27.1217C56.2799 27.4002 55.8879 27.5446 55.465 27.5446C55.0369 27.5446 54.743 27.4467 54.5831 27.2455C54.4232 27.0444 54.3407 26.7401 54.3407 26.3275V22.7997C54.3407 21.9951 54.0725 21.5928 53.5412 21.5928C53.1389 21.5928 52.7057 21.8352 52.2467 22.3148V27.4415C51.9475 27.4931 51.6174 27.5189 51.2667 27.5189C50.916 27.5189 50.5911 27.4931 50.2868 27.4415V22.81Z" fill="white"/>
<path d="M63.975 26.5331C63.9234 26.7136 63.8357 26.9044 63.7016 27.1056C63.5675 27.3067 63.4386 27.4563 63.3096 27.5594C62.6546 27.4769 62.1801 27.1933 61.8758 26.6981C61.2208 27.3325 60.5091 27.6471 59.7354 27.6471C59.3434 27.6471 58.9979 27.5852 58.7039 27.4563C58.4048 27.3325 58.1623 27.1623 57.9664 26.9509C57.7704 26.7394 57.626 26.497 57.528 26.2288C57.43 25.9606 57.3835 25.6769 57.3835 25.3829C57.3835 24.96 57.4558 24.5938 57.6002 24.2741C57.7446 23.9595 57.9509 23.6913 58.2191 23.4798C58.4873 23.2683 58.7967 23.1084 59.1526 23.0001C59.5085 22.8918 59.9005 22.8351 60.3234 22.8351C60.8649 22.8351 61.2879 22.8506 61.587 22.8815V22.4741C61.587 21.7107 61.2156 21.3291 60.473 21.3291C59.9727 21.3291 59.2093 21.5044 58.183 21.8552C57.8993 21.5457 57.7291 21.0764 57.6724 20.4523C58.7348 19.9984 59.8386 19.7715 60.9732 19.7715C61.7262 19.7715 62.3452 19.9829 62.8248 20.4059C63.3045 20.8288 63.5469 21.4683 63.5469 22.3193V25.4087C63.552 25.9503 63.6913 26.3216 63.975 26.5331ZM60.1738 26.1566C60.6741 26.1566 61.1486 25.9348 61.5922 25.4913V24.1812C61.4323 24.1709 61.2775 24.1606 61.1228 24.1503C60.9732 24.14 60.8237 24.1348 60.6844 24.1348C60.2409 24.1348 59.9056 24.2173 59.6735 24.3824C59.4414 24.5474 59.328 24.8208 59.328 25.2024C59.328 25.5016 59.4053 25.7388 59.5549 25.9039C59.7096 26.0689 59.9159 26.1566 60.1738 26.1566Z" fill="white"/>
<path d="M64.6814 20.8657C64.7227 20.6852 64.8052 20.4944 64.929 20.2932C65.0527 20.0921 65.1817 19.9425 65.3158 19.8394C66.1307 19.9373 66.6877 20.3912 66.9868 21.1958C67.3685 20.3035 68.0081 19.8548 68.9003 19.8548C69.2304 19.8548 69.5347 19.8909 69.8029 19.958C69.8029 20.6594 69.643 21.2732 69.3181 21.7992C69.1685 21.7477 68.9364 21.7116 68.627 21.6961C68.0442 21.6961 67.5697 22.0055 67.2086 22.6296V27.4365C66.9095 27.4881 66.5846 27.5139 66.239 27.5139C65.8934 27.5139 65.5582 27.4881 65.2384 27.4365V22.4182C65.2384 21.7012 65.0527 21.1855 64.6814 20.8657Z" fill="white"/>
<path d="M74.9144 19.9471C74.9763 20.1895 75.0072 20.4268 75.0072 20.6537C75.0072 20.8807 74.9763 21.1231 74.9144 21.3603L73.0886 21.3294V25.2956C73.0886 25.7597 73.3052 25.9867 73.7384 25.9867H74.672C74.77 26.2858 74.8215 26.5746 74.8215 26.848C74.8215 27.1213 74.8061 27.2967 74.7751 27.3741C74.1614 27.4669 73.5579 27.5082 72.9648 27.5082C71.7579 27.5082 71.1545 26.8944 71.1545 25.6669V21.3397L70.0095 21.3552C69.9579 21.154 69.9321 20.9168 69.9321 20.6486C69.9321 20.3804 69.9579 20.1431 70.0095 19.942L71.1545 19.9575V18.8744C71.1545 18.4308 71.237 18.1213 71.3969 17.9408C71.5568 17.7603 71.8353 17.6675 72.2273 17.6675H72.9803L73.0834 17.7603V19.9781L74.9144 19.9471Z" fill="white"/>
<path d="M82.3877 24.0169H81.0055V27.4364C80.7218 27.4879 80.3814 27.5137 79.9894 27.5137C79.5975 27.5137 79.2571 27.4879 78.9734 27.4364V17.2192L79.0765 17.1263C79.8914 17.1057 80.5722 17.0902 81.119 17.0799C81.6657 17.0696 82.0886 17.0645 82.3774 17.0645C83.4605 17.0645 84.327 17.3636 84.9768 17.9516C85.6267 18.5447 85.9465 19.406 85.9465 20.5304C85.9465 21.0925 85.8588 21.5928 85.6886 22.0209C85.5184 22.4541 85.276 22.8152 84.9665 23.104C84.6571 23.398 84.2806 23.6198 83.8473 23.7745C83.4192 23.9395 82.9293 24.0169 82.3877 24.0169ZM81.0055 18.6324V22.4748C81.3975 22.4645 81.7275 22.4593 82.0009 22.4593C82.2743 22.4593 82.5115 22.4438 82.7075 22.4077C82.9035 22.3716 83.0685 22.3097 83.2026 22.2117C83.3367 22.1189 83.4605 21.9745 83.5688 21.7837C83.6668 21.6135 83.7442 21.4175 83.7958 21.2008C83.8473 20.9842 83.8731 20.7676 83.8731 20.5458C83.8731 20.3137 83.8473 20.0868 83.7958 19.8599C83.7442 19.6329 83.6617 19.4318 83.543 19.2513C83.4244 19.0708 83.2645 18.9263 83.0634 18.8129C82.8622 18.6994 82.6147 18.6478 82.3155 18.6478C82.0267 18.6478 81.774 18.6478 81.5573 18.6478C81.3356 18.6478 81.1551 18.6427 81.0055 18.6324Z" fill="white"/>
<path d="M91.8415 20.5919C92.5533 21.3037 92.9143 22.3404 92.9143 23.6968C92.9143 24.3002 92.837 24.847 92.6874 25.3318C92.5378 25.8217 92.316 26.2343 92.0324 26.5747C91.7487 26.9151 91.3928 27.1782 90.9699 27.3639C90.547 27.5495 90.0725 27.6424 89.5361 27.6424C89.0049 27.6424 88.5304 27.5495 88.1126 27.3639C87.6948 27.1782 87.3441 26.9151 87.0553 26.5747C86.7665 26.2343 86.5498 25.8166 86.4003 25.3318C86.2507 24.847 86.1733 24.3002 86.1733 23.6968C86.1733 22.4796 86.4673 21.5203 87.0501 20.8086C87.6329 20.0968 88.4633 19.7461 89.5361 19.7461C90.4799 19.7513 91.2484 20.0298 91.8415 20.5919ZM89.5361 21.2263C88.6541 21.2263 88.2106 22.0515 88.2106 23.6968C88.2106 25.3369 88.6541 26.1518 89.5361 26.1518C90.4284 26.1518 90.8771 25.3318 90.8771 23.6968C90.8771 22.0515 90.4284 21.2263 89.5361 21.2263Z" fill="white"/>
<path d="M93.3943 26.9102C93.4046 26.6884 93.4665 26.446 93.5851 26.1778C93.6986 25.9096 93.8327 25.7033 93.9823 25.5538C94.7765 25.987 95.4728 26.2036 96.0762 26.2036C96.4063 26.2036 96.6745 26.1366 96.8808 26.0076C97.0871 25.8787 97.1903 25.7033 97.1903 25.4816C97.1903 25.1308 96.9169 24.8472 96.3754 24.6357L95.5295 24.3211C94.2608 23.8569 93.6315 23.1194 93.6315 22.1033C93.6315 21.7423 93.6986 21.4174 93.8327 21.1285C93.9668 20.8397 94.1576 20.5973 94.4052 20.391C94.6527 20.1847 94.9467 20.0248 95.2871 19.9165C95.6275 19.8082 96.0092 19.7515 96.4321 19.7515C96.6229 19.7515 96.8344 19.7669 97.0717 19.7979C97.3089 19.8288 97.5462 19.8701 97.7886 19.9268C98.031 19.9836 98.2631 20.0454 98.4797 20.1177C98.7015 20.1899 98.8923 20.2621 99.0522 20.3446C99.0522 20.5973 99.0006 20.8552 98.9026 21.1285C98.7995 21.4019 98.6654 21.603 98.4952 21.732C97.7009 21.3813 97.0149 21.2059 96.4321 21.2059C96.1691 21.2059 95.9628 21.2678 95.8132 21.3967C95.6636 21.5257 95.5863 21.6856 95.5863 21.8867C95.5863 22.1962 95.839 22.4437 96.3393 22.6242L97.2573 22.9543C97.9227 23.1864 98.4126 23.501 98.7324 23.9033C99.0522 24.3056 99.2121 24.775 99.2121 25.3062C99.2121 26.0179 98.9439 26.5904 98.4126 27.0185C97.8814 27.4466 97.1181 27.6581 96.1227 27.6581C95.1633 27.6477 94.2504 27.4002 93.3943 26.9102Z" fill="white"/>
<path d="M104.276 19.9476C104.338 20.19 104.369 20.4273 104.369 20.6542C104.369 20.8811 104.338 21.1236 104.276 21.3608L102.45 21.3299V25.296C102.45 25.7602 102.667 25.9872 103.1 25.9872H104.034C104.132 26.2863 104.183 26.5751 104.183 26.8485C104.183 27.1218 104.168 27.2972 104.137 27.3746C103.523 27.4674 102.919 27.5087 102.326 27.5087C101.119 27.5087 100.516 26.8949 100.516 25.6674V21.3402L99.3711 21.3556C99.3195 21.1545 99.2937 20.9173 99.2937 20.6491C99.2937 20.3809 99.3195 20.1436 99.3711 19.9425L100.516 19.9579V18.8748C100.516 18.4313 100.599 18.1218 100.758 17.9413C100.918 17.7608 101.197 17.668 101.589 17.668H102.342L102.45 17.7608V19.9786L104.276 19.9476Z" fill="white"/>
<path d="M107.413 26.5336C107.444 26.2551 107.537 25.9663 107.691 25.6826C107.846 25.3938 108.027 25.1669 108.228 24.9967C109.264 25.662 110.275 25.9921 111.271 25.9921C111.756 25.9921 112.137 25.8786 112.416 25.6517C112.694 25.4247 112.839 25.1411 112.839 24.8007C112.818 24.2179 112.431 23.7588 111.678 23.4287L109.899 22.6757C109.197 22.3869 108.666 22.0104 108.315 21.5514C107.965 21.0924 107.789 20.5714 107.789 19.9783C107.789 19.5244 107.877 19.1118 108.052 18.7405C108.228 18.3691 108.48 18.0494 108.805 17.7812C109.13 17.513 109.517 17.3067 109.966 17.1571C110.415 17.0075 110.91 16.9302 111.451 16.9302C112.555 16.9302 113.643 17.2087 114.706 17.7605C114.675 18.3743 114.438 18.8849 113.999 19.2975C112.983 18.823 112.101 18.5909 111.348 18.5909C110.863 18.5909 110.497 18.6992 110.239 18.921C109.981 19.1428 109.852 19.411 109.852 19.7307C109.852 20.1898 110.208 20.5714 110.925 20.8706L112.705 21.6236C113.427 21.9227 113.984 22.3199 114.376 22.815C114.768 23.3101 114.964 23.8775 114.964 24.517C114.964 24.9709 114.881 25.3886 114.721 25.7754C114.561 26.1623 114.319 26.4924 113.989 26.7709C113.664 27.0494 113.256 27.266 112.766 27.4207C112.276 27.5754 111.704 27.6528 111.039 27.6528C109.76 27.6477 108.548 27.2763 107.413 26.5336Z" fill="white"/>
<path d="M122.215 22.4025V25.6878C122.215 26.3325 122.323 26.807 122.529 27.1217C122.21 27.4002 121.823 27.5446 121.369 27.5446C120.936 27.5446 120.642 27.4466 120.482 27.2506C120.322 27.0546 120.239 26.7451 120.239 26.3222V22.8099C120.239 22.356 120.183 22.0414 120.074 21.8609C119.966 21.6804 119.76 21.5876 119.456 21.5876C118.924 21.5876 118.424 21.83 117.965 22.3096V27.4363C117.815 27.4672 117.661 27.4878 117.506 27.4982C117.351 27.5085 117.186 27.5136 117.016 27.5136C116.856 27.5136 116.696 27.5085 116.531 27.4982C116.371 27.4878 116.211 27.4672 116.052 27.4363V16.4454L116.139 16.3423H116.908C117.3 16.3423 117.573 16.4351 117.728 16.6156C117.882 16.7962 117.96 17.1108 117.96 17.5646V20.7469C118.661 20.1331 119.373 19.8288 120.085 19.8288C120.807 19.8288 121.343 20.0609 121.689 20.5303C122.039 20.9944 122.215 21.6185 122.215 22.4025Z" fill="white"/>
<path d="M128.967 20.5919C129.679 21.3037 130.04 22.3404 130.04 23.6968C130.04 24.3002 129.962 24.847 129.813 25.3318C129.663 25.8217 129.441 26.2343 129.158 26.5747C128.874 26.9151 128.518 27.1782 128.095 27.3639C127.672 27.5495 127.198 27.6424 126.661 27.6424C126.13 27.6424 125.656 27.5495 125.238 27.3639C124.82 27.1782 124.469 26.9151 124.181 26.5747C123.892 26.2343 123.675 25.8166 123.526 25.3318C123.376 24.847 123.299 24.3002 123.299 23.6968C123.299 22.4796 123.593 21.5203 124.175 20.8086C124.758 20.0968 125.589 19.7461 126.661 19.7461C127.605 19.7513 128.374 20.0298 128.967 20.5919ZM126.661 21.2263C125.779 21.2263 125.336 22.0515 125.336 23.6968C125.336 25.3369 125.779 26.1518 126.661 26.1518C127.554 26.1518 128.002 25.3318 128.002 23.6968C128.002 22.0515 127.554 21.2263 126.661 21.2263Z" fill="white"/>
<path d="M131.772 26.5338L130.266 20.0661C130.658 19.9063 131.014 19.8237 131.329 19.8237C131.643 19.8237 131.876 19.8908 132.02 20.0249C132.164 20.159 132.262 20.3704 132.314 20.6489L132.886 23.4237C133.088 24.4088 133.232 25.2186 133.325 25.853C133.345 25.9355 133.387 25.9716 133.443 25.9716L134.485 20.0042C134.795 19.9424 135.187 19.9114 135.661 19.9114C136.136 19.9114 136.517 19.9424 136.806 20.0042L137.848 25.853C137.858 25.9355 137.9 25.9716 137.967 25.9716C138.147 24.9246 138.302 24.0787 138.436 23.4237L139.189 19.9578C139.4 19.8959 139.7 19.865 140.086 19.865C140.473 19.865 140.778 19.9217 140.999 20.03L141.061 20.1487L139.251 27.4312C138.921 27.4828 138.488 27.5085 137.962 27.5085C137.435 27.5085 137.074 27.4467 136.884 27.328C136.693 27.2094 136.569 26.9515 136.507 26.5595L136.177 24.708C135.976 23.5527 135.816 22.5573 135.692 21.7217H135.604C135.532 22.2426 135.367 23.2329 135.109 24.6925L134.588 27.4363C134.238 27.4879 133.799 27.5137 133.278 27.5137C132.757 27.5137 132.396 27.4467 132.2 27.3177C132.004 27.1836 131.86 26.9257 131.772 26.5338Z" fill="white"/>
<g clip-path="url(#clip1_12094_1026546)">
<path d="M261.367 15.6333C257.856 12.1222 252.144 12.1222 248.633 15.6333C245.122 19.1437 245.122 24.8563 248.633 28.3667C252.144 31.8778 257.856 31.8778 261.367 28.3667C264.878 24.8563 264.878 19.1437 261.367 15.6333ZM261.622 26.1912L259.374 23.9443C259.919 22.7168 259.921 21.3087 259.386 20.0789L261.635 17.8308C263.236 20.3775 263.233 23.6475 261.622 26.1912ZM252.433 24.5676C251.017 23.1514 251.017 20.8486 252.433 19.433C253.849 18.0167 256.151 18.0167 257.568 19.433C258.984 20.8486 258.984 23.1508 257.568 24.567C256.151 25.9821 253.848 25.9815 252.433 24.5676ZM259.17 15.3649L256.92 17.6141C255.691 17.0762 254.283 17.0809 253.055 17.6252L250.808 15.3771C253.353 13.7674 256.622 13.7639 259.17 15.3649ZM248.352 17.85L250.603 20.101C250.08 21.3186 250.084 22.7052 250.615 23.9199L248.365 26.1686C246.773 23.6353 246.769 20.3886 248.352 17.85ZM250.829 28.6351L253.078 26.3859C254.294 26.9156 255.681 26.9209 256.898 26.3969L259.149 28.6479C256.61 30.2309 253.363 30.2274 250.829 28.6351Z" fill="white"/>
</g>
<defs>
<linearGradient id="paint0_linear_12094_1026546" x1="0" y1="22" x2="280" y2="22" gradientUnits="userSpaceOnUse">
<stop stop-color="#B53361"/>
<stop offset="0.650203" stop-color="#E2572C"/>
</linearGradient>
<clipPath id="clip0_12094_1026546">
<rect width="18" height="18" fill="white" transform="translate(16 13)"/>
</clipPath>
<clipPath id="clip1_12094_1026546">
<rect width="18" height="18" fill="white" transform="translate(246 13)"/>
</clipPath>
</defs>
</svg>
