<svg width="18" height="18" viewBox="0 0 18 18" fill="none" xmlns="http://www.w3.org/2000/svg">
<g clip-path="url(#clip0_30690_8386)">
<path d="M15.3667 2.63325C11.8563 -0.877751 6.14426 -0.877751 2.63325 2.63325C-0.877751 6.14368 -0.877751 11.8563 2.63325 15.3667C6.14368 18.8778 11.8557 18.8778 15.3667 15.3667C18.8778 11.8563 18.8778 6.14368 15.3667 2.63325ZM15.6218 13.1912L13.3742 10.9443C13.9185 9.71684 13.9209 8.30872 13.3859 7.07894L15.6351 4.83083C17.2355 7.37753 17.2326 10.6475 15.6218 13.1912ZM6.43297 11.5676C5.01672 10.1514 5.01672 7.84864 6.43297 6.43297C7.84864 5.01672 10.1508 5.01672 11.5676 6.43297C12.9839 7.84864 12.9839 10.1508 11.5676 11.567C10.1508 12.9821 7.84806 12.9815 6.43297 11.5676ZM13.1703 2.36487L10.9205 4.61415C9.6907 4.07623 8.28258 4.08088 7.05512 4.62519L4.80817 2.37707C7.35255 0.767379 10.6225 0.763893 13.1703 2.36487ZM2.35209 4.85L4.60311 7.10101C4.07971 8.3186 4.08378 9.70522 4.61473 10.9199L2.36546 13.1686C0.772607 10.6353 0.769121 7.38856 2.35209 4.85ZM4.82908 15.6351L7.07836 13.3859C8.29362 13.9156 9.68082 13.9209 10.8978 13.3969L13.1488 15.6479C10.6103 17.2309 7.363 17.2274 4.82908 15.6351Z" fill="white"/>
</g>
<defs>
<clipPath id="clip0_30690_8386">
<rect width="18" height="18" fill="white"/>
</clipPath>
</defs>
</svg>
