<svg xmlns="http://www.w3.org/2000/svg" width="24" height="23" viewBox="0 0 24 23" fill="none">
  <path d="M22 5.15039C22 3.02409 20.2767 1.30078 18.1504 1.30078H5.15039C3.02409 1.30078 1.30078 3.02409 1.30078 5.15039C1.30078 7.27669 3.02409 9 5.15039 9H18.1504C20.2767 9 22 7.27669 22 5.15039ZM23.3008 5.15039C23.3008 7.99466 20.9947 10.3008 18.1504 10.3008H5.15039C2.30612 10.3008 0 7.99466 0 5.15039C0 2.30612 2.30612 0 5.15039 0H18.1504C20.9947 0 23.3008 2.30612 23.3008 5.15039Z" fill="#641DD7"/>
  <path d="M22 13.6504C22 13.4571 21.8437 13.3008 21.6504 13.3008H1.65039C1.45709 13.3008 1.30078 13.4571 1.30078 13.6504V20.6504C1.30078 20.8437 1.45709 21 1.65039 21H21.6504C21.8437 21 22 20.8437 22 20.6504V13.6504ZM23.3008 20.6504C23.3008 21.5617 22.5617 22.3008 21.6504 22.3008H1.65039C0.739121 22.3008 0 21.5617 0 20.6504V13.6504C0 12.7391 0.739121 12 1.65039 12H21.6504C22.5617 12 23.3008 12.7391 23.3008 13.6504V20.6504Z" fill="#641DD7"/>
  <path d="M17.9004 16.3506C18.3422 16.3506 18.7002 16.7086 18.7002 17.1504C18.7002 17.5922 18.3422 17.9502 17.9004 17.9502H5.40039C4.95856 17.9502 4.60059 17.5922 4.60059 17.1504C4.60059 16.7086 4.95856 16.3506 5.40039 16.3506H17.9004Z" fill="#641DD7"/>
  <path d="M13.9004 4.35059C14.3422 4.35059 14.7002 4.70856 14.7002 5.15039C14.7002 5.59222 14.3422 5.9502 13.9004 5.9502H5.40039C4.95856 5.9502 4.60059 5.59222 4.60059 5.15039C4.60059 4.70856 4.95856 4.35059 5.40039 4.35059H13.9004Z" fill="#641DD7"/>
  <path d="M19.6504 5.15039C19.6504 5.97882 18.9788 6.65039 18.1504 6.65039C17.322 6.65039 16.6504 5.97882 16.6504 5.15039C16.6504 4.32196 17.322 3.65039 18.1504 3.65039C18.9788 3.65039 19.6504 4.32196 19.6504 5.15039Z" fill="#641DD7"/>
</svg>