<svg width="18" height="18" viewBox="0 0 18 18" fill="none" xmlns="http://www.w3.org/2000/svg">
<g clip-path="url(#clip0_30682_8370)">
<path d="M2.57492e-05 11.0228C2.57492e-05 10.4015 0.503705 9.89782 1.12503 9.89782H6.97502C7.59635 9.89782 8.10002 10.4015 8.10002 11.0228V16.8728C8.10002 17.4941 7.59635 17.9978 6.97502 17.9978H1.12503C0.503705 17.9978 2.57492e-05 17.4941 2.57492e-05 16.8728V11.0228Z" fill="#641DD7"/>
<path d="M9.90002 4.04781C9.90002 1.81105 11.7133 -0.00219727 13.95 -0.00219727C16.1868 -0.00219727 18 1.81105 18 4.04781C18 6.28456 16.1868 8.09781 13.95 8.09781C11.7133 8.09781 9.90002 6.28456 9.90002 4.04781Z" fill="#641DD7"/>
<path d="M0 1.1228C0 0.501483 0.50368 -0.00219727 1.125 -0.00219727H6.975C7.59632 -0.00219727 8.1 0.501483 8.1 1.1228V6.97281C8.1 7.59413 7.59632 8.09781 6.975 8.09781H1.125C0.50368 8.09781 0 7.59413 0 6.97281V1.1228Z" fill="#641DD7"/>
<path d="M9.90001 11.0978C9.90001 10.7665 10.1686 10.4978 10.5 10.4978H17.4C17.7314 10.4978 18 10.7665 18 11.0978C18 11.4292 17.7314 11.6978 17.4 11.6978H10.5C10.1686 11.6978 9.90001 11.4292 9.90001 11.0978Z" fill="#641DD7"/>
<path d="M9.90001 13.9538C9.90001 13.6225 10.1686 13.3538 10.5 13.3538H17.4C17.7314 13.3538 18 13.6225 18 13.9538C18 14.2852 17.7314 14.5538 17.4 14.5538H10.5C10.1686 14.5538 9.90001 14.2852 9.90001 13.9538Z" fill="#641DD7"/>
<path d="M9.90001 16.8099C9.90001 16.4785 10.1686 16.2099 10.5 16.2099H17.4C17.7314 16.2099 18 16.4785 18 16.8099C18 17.1412 17.7314 17.4099 17.4 17.4099H10.5C10.1686 17.4099 9.90001 17.1412 9.90001 16.8099Z" fill="#641DD7"/>
</g>
<defs>
<clipPath id="clip0_30682_8370">
<rect width="18" height="18" fill="white"/>
</clipPath>
</defs>
</svg>
