<svg xmlns="http://www.w3.org/2000/svg" width="24" height="23" viewBox="0 11 24 12" fill="none">
  <path d="M22 13.6504C22 13.4571 21.8437 13.3008 21.6504 13.3008H1.65039C1.45709 13.3008 1.30078 13.4571 1.30078 13.6504V20.6504C1.30078 20.8437 1.45709 21 1.65039 21H21.6504C21.8437 21 22 20.8437 22 20.6504V13.6504ZM23.3008 20.6504C23.3008 21.5617 22.5617 22.3008 21.6504 22.3008H1.65039C0.739121 22.3008 0 21.5617 0 20.6504V13.6504C0 12.7391 0.739121 12 1.65039 12H21.6504C22.5617 12 23.3008 12.7391 23.3008 13.6504V20.6504Z" fill="#641DD7"/>
  <path d="M17.9004 16.3506C18.3422 16.3506 18.7002 16.7086 18.7002 17.1504C18.7002 17.5922 18.3422 17.9502 17.9004 17.9502H5.40039C4.95856 17.9502 4.60059 17.5922 4.60059 17.1504C4.60059 16.7086 4.95856 16.3506 5.40039 16.3506H17.9004Z" fill="#641DD7"/>
</svg>