<svg xmlns="http://www.w3.org/2000/svg" width="12" height="12" viewBox="0 0 12 12" fill="none">
  <g clip-path="url(#clip0_28607_7721)">
    <path d="M6.028 0.000781258L6.01867 0.000520839C6.01229 0.000260425 6.006 0 5.99962 0C4.11226 0 2.3118 0.905476 1.18335 2.42214C0.409204 3.46256 0 4.69994 0 6.00017C0 7.14596 0.32427 8.25975 0.937598 9.22143C1.53453 10.1574 2.37639 10.909 3.37229 11.395C4.19509 11.7965 5.07908 12.0001 5.99965 12.0001C6.00577 12.0001 6.01193 11.9998 6.01805 11.9997L6.02738 11.9994C9.32064 11.9845 12 9.29319 12 6.00015C11.9999 2.70701 9.32059 0.0156703 6.028 0.000781258ZM9.5787 4.72738L5.81422 8.49198C5.77303 8.5333 5.72702 8.57093 5.67768 8.60357C5.53701 8.69623 5.37355 8.74533 5.20502 8.74533C4.9745 8.74533 4.75783 8.65531 4.59472 8.49186L2.42048 6.31795C2.08449 5.9814 2.08449 5.43395 2.42035 5.09782C2.58341 4.93475 2.80022 4.84486 3.0309 4.84486C3.26141 4.84486 3.47808 4.93458 3.64101 5.09782L5.20503 6.66239L8.35928 3.50758C8.52209 3.34465 8.73875 3.25494 8.96927 3.25494C9.19978 3.25494 9.41645 3.34465 9.57913 3.50776C9.74193 3.6707 9.83165 3.88723 9.83152 4.11774C9.83156 4.348 9.74177 4.56458 9.5787 4.72738Z" fill="white"/>
    <path d="M9.5787 4.72738L5.81422 8.49198C5.77303 8.5333 5.72702 8.57093 5.67768 8.60357C5.53701 8.69623 5.37355 8.74533 5.20502 8.74533C4.9745 8.74533 4.75783 8.65531 4.59472 8.49186L2.42048 6.31795C2.08449 5.9814 2.08449 5.43395 2.42035 5.09782C2.58341 4.93475 2.80022 4.84486 3.0309 4.84486C3.26141 4.84486 3.47808 4.93458 3.64101 5.09782L5.20503 6.66239L8.35928 3.50758C8.52209 3.34465 8.73875 3.25494 8.96927 3.25494C9.19978 3.25494 9.41645 3.34465 9.57913 3.50776C9.74193 3.6707 9.83165 3.88723 9.83152 4.11774C9.83156 4.348 9.74177 4.56458 9.5787 4.72738Z" fill="white"/>
    <path d="M6.028 0.000781258L6.01867 0.000520839C6.01229 0.000260425 6.006 0 5.99962 0C4.11226 0 2.3118 0.905476 1.18335 2.42214C0.409204 3.46256 0 4.69994 0 6.00017C0 7.14596 0.32427 8.25975 0.937598 9.22143C1.53453 10.1574 2.37639 10.909 3.37229 11.395C4.19509 11.7965 5.07908 12.0001 5.99965 12.0001C6.00577 12.0001 6.01193 11.9998 6.01805 11.9997L6.02738 11.9994C9.32064 11.9845 12 9.29319 12 6.00015C11.9999 2.70701 9.32064 0.0156491 6.02805 0.000760065L6.028 0.000781258ZM9.5787 4.72738L5.81422 8.49198C5.77303 8.5333 5.72702 8.57093 5.67768 8.60357C5.53701 8.69623 5.37355 8.74533 5.20502 8.74533C4.9745 8.74533 4.75783 8.65531 4.59472 8.49186L2.42048 6.31795C2.08449 5.9814 2.08449 5.43395 2.42035 5.09782C2.58341 4.93475 2.80022 4.84486 3.0309 4.84486C3.26141 4.84486 3.47808 4.93458 3.64101 5.09782L5.20503 6.66239L8.35928 3.50758C8.52209 3.34465 8.73875 3.25494 8.96927 3.25494C9.19978 3.25494 9.41645 3.34465 9.57913 3.50776C9.74193 3.6707 9.83165 3.88723 9.83152 4.11774C9.83156 4.348 9.74172 4.56467 9.57865 4.72747L9.5787 4.72738Z" fill="#1A74E4"/>
  </g>
  <defs>
    <clipPath id="clip0_28607_7721">
      <rect width="12" height="12" fill="white"/>
    </clipPath>
  </defs>
</svg>